<?xml version="1.0" standalone="no"?>
<!DOCTYPE svg PUBLIC "-//W3C//DTD SVG 20010904//EN"
 "http://www.w3.org/TR/2001/REC-SVG-20010904/DTD/svg10.dtd">
<svg version="1.0" xmlns="http://www.w3.org/2000/svg"
 width="300.000000pt" height="300.000000pt" viewBox="0 0 300.000000 300.000000"
 preserveAspectRatio="xMidYMid meet">
<metadata>
Created by potrace 1.10, written by Peter Selinger 2001-2011
</metadata>
<g transform="translate(0.000000,300.000000) scale(0.100000,-0.100000)"
fill="#000000" stroke="none">
<path d="M1265 2983 c-130 -18 -330 -85 -465 -157 -448 -237 -770 -721 -785
-1181 -4 -104 -3 -112 5 -55 6 36 15 92 21 125 6 33 13 74 16 90 9 66 78 265
120 350 45 88 126 215 170 264 12 14 41 47 64 75 37 45 122 123 184 171 90 68
132 95 229 145 114 58 123 61 290 110 99 30 119 33 231 45 33 4 62 8 64 11 2
2 11 -2 19 -9 11 -8 14 -8 9 0 -5 7 1 13 15 16 29 5 -147 5 -187 0z"/>
<path d="M1562 2984 c5 -5 98 -20 178 -29 43 -5 208 -48 270 -70 60 -22 193
-84 200 -93 3 -4 26 -19 52 -32 81 -43 158 -100 234 -174 41 -39 74 -69 74
-67 0 2 14 -14 31 -35 17 -21 34 -41 38 -44 54 -40 223 -343 258 -465 30 -104
44 -161 48 -192 2 -18 5 -36 8 -40 3 -4 8 -35 12 -68 3 -33 10 -76 15 -95 7
-30 8 -24 9 36 3 196 -93 489 -227 694 -226 347 -597 597 -986 665 -85 14
-225 21 -214 9z"/>
<path d="M179 2863 l-34 -38 38 34 c34 33 42 41 34 41 -2 0 -19 -17 -38 -37z"/>
<path d="M2309 2883 c-13 -16 -12 -17 4 -4 9 7 17 15 17 17 0 8 -8 3 -21 -13z"/>
<path d="M2269 2843 c-13 -16 -12 -17 4 -4 9 7 17 15 17 17 0 8 -8 3 -21 -13z"/>
<path d="M114 2798 l-19 -23 23 19 c21 18 27 26 19 26 -2 0 -12 -10 -23 -22z"/>
<path d="M1737 2628 c-36 -50 -51 -95 -49 -155 1 -46 -1 -53 -12 -44 -19 16
-41 -16 -65 -95 -18 -57 -19 -100 -19 -628 l-1 -567 -26 -35 c-36 -47 -74 -69
-170 -99 -65 -20 -87 -32 -121 -67 -49 -52 -66 -80 -82 -135 -14 -49 -18 -193
-5 -202 5 -3 15 -26 23 -50 18 -55 118 -159 182 -189 69 -32 173 -31 238 2 61
31 109 73 125 110 l12 29 31 -45 c38 -55 113 -105 173 -116 141 -26 287 59
358 208 23 48 26 68 26 155 0 89 -3 106 -27 151 -40 76 -114 137 -179 147 -10
2 -22 6 -25 10 -4 4 -16 7 -26 7 -23 0 -85 31 -114 57 -54 47 -53 35 -53 644
l0 564 -28 80 c-15 44 -31 82 -35 83 -5 2 -8 8 -8 14 0 18 -72 177 -85 188
-10 8 -19 3 -38 -22z m139 -260 l34 -87 0 -574 0 -574 23 -34 c32 -48 107 -96
175 -110 31 -6 76 -23 99 -36 107 -60 159 -212 119 -344 -22 -71 -41 -103 -96
-158 -132 -132 -327 -116 -421 34 -17 27 -19 52 -19 260 l0 231 30 11 c33 13
70 66 70 103 0 37 -37 90 -70 103 l-30 11 0 280 c0 261 -3 305 -41 646 -22
201 -38 376 -35 390 2 14 14 47 26 74 l22 49 40 -94 c22 -52 55 -133 74 -181z
m-165 -310 c35 -315 39 -380 39 -605 l0 -251 -30 -10 c-34 -12 -70 -65 -70
-102 0 -37 37 -90 70 -103 l30 -11 0 -234 0 -234 -32 -44 c-41 -57 -131 -104
-198 -104 -96 0 -194 55 -253 142 -128 189 -60 425 140 483 111 32 184 88 203
156 6 20 10 257 10 594 0 553 0 561 22 622 12 34 24 60 26 58 2 -2 22 -163 43
-357z m103 -919 c32 -25 34 -64 4 -96 -27 -29 -65 -29 -95 -1 -31 29 -30 71 3
97 15 12 34 21 44 21 10 0 29 -9 44 -21z m-39 -149 c3 -5 1 -10 -4 -10 -6 0
-11 5 -11 10 0 6 2 10 4 10 3 0 8 -4 11 -10z"/>
<path d="M2020 887 c-51 -16 -122 -92 -143 -152 -58 -166 51 -318 196 -275 57
16 138 100 156 159 51 173 -61 317 -209 268z m113 -26 c14 -6 38 -26 53 -46
23 -31 28 -48 30 -98 0 -34 -2 -69 -6 -77 -55 -113 -94 -150 -168 -158 -99 -9
-152 49 -152 165 0 60 4 76 33 123 48 82 135 119 210 91z"/>
<path d="M1405 886 c-71 -32 -105 -92 -105 -183 0 -182 192 -315 311 -216 95
81 90 243 -10 343 -64 64 -134 84 -196 56z m134 -35 c71 -37 116 -121 114
-214 -3 -99 -60 -158 -150 -156 -104 2 -194 129 -179 253 6 47 14 63 44 94 31
32 44 38 85 40 31 1 61 -5 86 -17z"/>
<path d="M966 2580 c-86 -33 -169 -117 -191 -195 -13 -42 -15 -67 -15 -178 -1
-82 4 -108 27 -170 23 -61 27 -91 30 -192 4 -150 9 -158 85 -125 107 46 105
41 112 197 6 145 8 174 26 399 18 220 17 255 -8 270 -14 9 -29 8 -66 -6z m64
-37 c0 -16 -9 -143 -20 -283 -11 -140 -20 -303 -20 -362 l0 -108 -70 -35 c-38
-19 -72 -35 -75 -35 -3 0 -5 55 -5 123 0 100 -4 131 -19 163 -40 84 -51 200
-30 323 20 115 72 185 165 221 66 26 74 25 74 -7z"/>
<path d="M903 1679 c-34 -16 -66 -35 -71 -42 -10 -13 -18 -101 -27 -308 -9
-201 -14 -327 -20 -444 -3 -60 -7 -172 -8 -247 -2 -125 0 -139 19 -165 60 -81
146 -94 215 -33 16 14 53 88 51 101 -2 10 -12 253 -17 409 -3 80 -7 177 -10
215 -2 39 -7 142 -10 230 -9 269 -16 315 -49 315 -6 0 -39 -14 -73 -31z m87
-11 c0 -12 9 -240 21 -507 11 -267 19 -528 17 -579 -3 -91 -4 -94 -36 -123
-46 -41 -108 -41 -154 0 -32 28 -33 33 -36 113 -2 46 6 282 17 524 12 243 21
460 21 483 0 40 1 41 68 75 80 42 82 42 82 14z"/>
<path d="M894 1468 l-29 -33 33 29 c30 28 37 36 29 36 -2 0 -16 -15 -33 -32z"/>
<path d="M914 958 l-29 -33 33 29 c30 28 37 36 29 36 -2 0 -16 -15 -33 -32z"/>
<path d="M2976 1423 c-3 -21 -8 -60 -11 -88 -25 -237 -131 -520 -258 -684 -23
-30 -56 -72 -73 -95 -64 -84 -287 -277 -371 -321 -21 -11 -54 -29 -75 -42
-106 -65 -365 -143 -528 -159 -121 -12 -127 -24 -10 -19 311 11 656 173 909
425 249 248 411 592 428 908 6 110 0 148 -11 75z"/>
<path d="M10 1383 c0 -158 61 -380 153 -561 145 -284 375 -514 659 -659 181
-92 408 -154 557 -152 58 1 62 2 31 10 -19 4 -60 11 -90 14 -30 4 -73 11 -95
16 -22 5 -51 12 -65 15 -14 2 -34 8 -45 11 -11 4 -22 7 -25 8 -58 8 -237 85
-345 148 -183 106 -353 267 -471 447 -133 203 -216 433 -243 674 -6 49 -13 91
-16 94 -3 3 -5 -26 -5 -65z"/>
<path d="M119 693 c-13 -16 -12 -17 4 -4 9 7 17 15 17 17 0 8 -8 3 -21 -13z"/>
</g>
</svg>
